<?xml version="1.0" encoding="utf-8"?>
<!-- Generator: Adobe Illustrator 21.1.0, SVG Export Plug-In . SVG Version: 6.00 Build 0)  -->
<svg version="1.1" id="Layer_1" xmlns="http://www.w3.org/2000/svg" xmlns:xlink="http://www.w3.org/1999/xlink" x="0px" y="0px"
	 viewBox="0 0 314.1 125.6" style="enable-background:new 0 0 314.1 125.6;" xml:space="preserve">
<style type="text/css">
	.st0{fill:url(#SVGID_1_);}
	.st1{opacity:0.65;fill:#FFFFFF;}
	.st2{fill:url(#SVGID_2_);}
	.st3{fill:url(#SVGID_3_);}
	.st4{fill:#075AA5;}
</style>
<g>
	<g>
		<g>
			
				<linearGradient id="SVGID_1_" gradientUnits="userSpaceOnUse" x1="1069.3281" y1="1375.1104" x2="1079.8331" y2="1336.4846" gradientTransform="matrix(-0.5701 -0.8216 0.8216 -0.5701 -459.2934 1738.4447)">
				<stop  offset="0" style="stop-color:#FFBF00"/>
				<stop  offset="1" style="stop-color:#FFE73B"/>
			</linearGradient>
			<path class="st0" d="M21,86.4c0,0.1,0,0.2,0.1,0.2l0,0c0.1,0.3,0.2,0.5,0.3,0.8c0,0,0.1,0.2,0.1,0.2l0.1,0.2
				c0.1,0.2,0.2,0.4,0.3,0.7l0.1,0.3c0.2,0.3,0.3,0.6,0.5,0.8c0.1,0.1,0.1,0.2,0.2,0.3c0.2,0.2,0.3,0.5,0.4,0.6c0,0,0.1,0.1,0.1,0.2
				c4.6,5.8,14.4,7.8,24.3,5.1c10-2.8,17.4-9.6,18.3-16.9c0,0,0,0,0,0c0,0,0,0,0,0c0-0.3,0.1-0.7,0.1-1l0-0.2c0-0.3,0-0.5,0-0.8
				c0-0.1,0-0.3,0-0.4c0-0.2,0-0.5-0.1-0.7c0-0.1,0-0.2,0-0.3c-0.1-0.3-0.1-0.7-0.2-1c0,0,0,0,0-0.1c-0.3-1.2-0.9-2.4-1.6-3.4
				c-1-1.4-2.3-2.6-3.9-3.5c-2.7-1.5-5.8-1.9-8.8-1c-2.2,0.6-4.1,1.8-5.6,3.4c-1.3,1.2-2.9,2-4.6,2.5c-1.7,0.5-3.5,0.5-5.2,0.2
				c-2.2-0.7-4.5-0.7-6.7-0.1C22.9,74,19.3,80.3,21,86.4z"/>
			<path class="st1" d="M36.8,87.6c-0.8-0.3-1.8,0.2-2,1c-0.3,0.8,0.2,1.8,1,2c0.3,0.1,7.6,2.4,15.9-2.8c0.8-0.5,1-1.5,0.5-2.2
				c0,0,0,0,0-0.1c-0.5-0.7-1.5-0.9-2.2-0.4C43,89.5,37,87.7,36.8,87.6z"/>
			<ellipse transform="matrix(0.8071 -0.5904 0.5904 0.8071 -32.817 48.3426)" class="st1" cx="57.6" cy="74.4" rx="2.1" ry="3"/>
		</g>
		<g>
			<linearGradient id="SVGID_2_" gradientUnits="userSpaceOnUse" x1="61.1172" y1="60.2968" x2="71.6221" y2="21.671">
				<stop  offset="0" style="stop-color:#B327C1"/>
				<stop  offset="1" style="stop-color:#EA88FF"/>
			</linearGradient>
			<path class="st2" d="M75.3,21.6c-0.1,0-0.1-0.1-0.2-0.1v0c-0.3-0.1-0.5-0.2-0.8-0.2c0,0-0.2,0-0.2,0l-0.2,0
				c-0.2,0-0.4-0.1-0.7-0.1l-0.3,0c-0.3,0-0.6-0.1-0.9-0.1c-0.1,0-0.2,0-0.3,0c-0.3,0-0.6,0-0.7,0c0,0-0.2,0-0.2,0
				c-7.4,0.5-14.6,7.3-18,17.1c-3.5,9.8-2.1,19.7,3.5,24.7c0,0,0,0,0,0c0,0,0,0,0,0c0.3,0.2,0.5,0.4,0.8,0.7l0.2,0.1
				c0.2,0.2,0.4,0.3,0.7,0.5c0.1,0.1,0.2,0.1,0.3,0.2c0.2,0.1,0.4,0.2,0.6,0.3c0.1,0,0.2,0.1,0.3,0.1c0.3,0.1,0.6,0.3,0.9,0.4
				c0,0,0,0,0.1,0c1.2,0.4,2.5,0.6,3.7,0.6c1.7,0,3.5-0.4,5.1-1.2c2.8-1.4,4.8-3.7,5.9-6.7c0.7-2.1,0.8-4.4,0.3-6.5
				c-0.2-1.8,0-3.5,0.6-5.2c0.6-1.7,1.5-3.2,2.8-4.4c1.8-1.4,3.2-3.3,3.9-5.4C84.3,30.3,81.2,23.7,75.3,21.6z"/>
			<path class="st1" d="M65.3,33.9c0.7-0.5,0.9-1.5,0.3-2.3c-0.5-0.7-1.5-0.9-2.3-0.3c-0.3,0.2-6.3,4.9-6.8,14.6
				c0,0.9,0.7,1.6,1.5,1.7c0,0,0,0,0.1,0c0.9,0,1.6-0.7,1.6-1.5C60.1,37.9,65,34.1,65.3,33.9z"/>
			<ellipse class="st1" cx="63.5" cy="57.7" rx="3" ry="2.1"/>
		</g>
		<g>
			
				<linearGradient id="SVGID_3_" gradientUnits="userSpaceOnUse" x1="-396.0322" y1="1623.5249" x2="-385.5273" y2="1584.8992" gradientTransform="matrix(-0.5812 0.8138 -0.8138 -0.5812 1167.1663 1333.7365)">
				<stop  offset="0" style="stop-color:#12B58B"/>
				<stop  offset="1" style="stop-color:#33F2B2"/>
			</linearGradient>
			<path class="st3" d="M99.4,101.9c0.1,0,0.1-0.1,0.2-0.1l0,0c0.2-0.2,0.5-0.3,0.7-0.5c0,0,0.1-0.1,0.1-0.1l0.2-0.1
				c0.2-0.2,0.3-0.3,0.5-0.5l0.2-0.2c0.2-0.2,0.4-0.5,0.6-0.7c0.1-0.1,0.1-0.2,0.2-0.3c0.2-0.2,0.3-0.5,0.4-0.6c0,0,0.1-0.1,0.1-0.2
				c3.9-6.3,2.5-16.1-3.4-24.6c-6-8.5-14.9-13.2-22.1-11.5c0,0,0,0,0,0c0,0,0,0,0,0c-0.3,0.1-0.7,0.2-1,0.3l-0.2,0.1
				c-0.3,0.1-0.5,0.2-0.8,0.3c-0.1,0.1-0.2,0.1-0.4,0.2c-0.2,0.1-0.4,0.2-0.7,0.3c-0.1,0.1-0.2,0.1-0.3,0.1
				c-0.3,0.2-0.6,0.3-0.9,0.5c0,0,0,0-0.1,0c-1,0.7-1.9,1.6-2.7,2.7c-1,1.4-1.7,3-2,4.8c-0.5,3,0.2,6.1,2,8.6
				c1.3,1.8,3.1,3.2,5.1,4.1c1.6,0.8,2.9,2,3.9,3.5c1,1.5,1.7,3.1,1.9,4.8c0.1,2.3,0.8,4.5,2.2,6.3
				C87.1,104.2,94.3,105.5,99.4,101.9z"/>
			<path class="st1" d="M95.3,86.6c0,0.9,0.8,1.6,1.7,1.6c0.9,0,1.6-0.8,1.6-1.7c0-0.3-0.3-8-8-14c-0.7-0.5-1.7-0.4-2.3,0.3
				c0,0,0,0,0,0.1c-0.5,0.7-0.4,1.7,0.3,2.2C95,80.1,95.3,86.3,95.3,86.6z"/>
			<ellipse transform="matrix(0.5448 -0.8385 0.8385 0.5448 -25.4116 95.2098)" class="st1" cx="75" cy="71" rx="3" ry="2.1"/>
		</g>
	</g>
	<g>
		<path class="st4" d="M118.1,69c0.3,0.1,0.6,0.1,0.8,0.2c0.3,0,0.6,0,0.8,0c0.7,0,1.4-0.1,2-0.3c0.7-0.2,1.3-0.5,1.8-0.8
			c0.6-0.4,1.1-0.8,1.5-1.3c0.4-0.5,0.8-1.1,1.1-1.7l5.3,5.3c-0.7,1-1.4,1.8-2.3,2.6c-0.9,0.8-1.8,1.4-2.8,1.9
			c-1,0.5-2.1,0.9-3.2,1.2c-1.1,0.3-2.3,0.4-3.5,0.4c-2,0-3.9-0.4-5.6-1.1c-1.8-0.7-3.3-1.8-4.6-3.1c-1.3-1.3-2.3-2.9-3.1-4.7
			c-0.8-1.8-1.1-3.8-1.1-6c0-2.2,0.4-4.3,1.1-6.1s1.8-3.4,3.1-4.7c1.3-1.3,2.8-2.3,4.6-3c1.8-0.7,3.6-1.1,5.6-1.1
			c1.2,0,2.3,0.1,3.5,0.4c1.1,0.3,2.2,0.7,3.2,1.2c1,0.5,2,1.2,2.8,1.9c0.9,0.8,1.7,1.6,2.3,2.6L118.1,69z M121.8,54.1
			c-0.3-0.1-0.7-0.2-1-0.2c-0.3,0-0.7-0.1-1-0.1c-1,0-1.9,0.2-2.8,0.5c-0.9,0.4-1.6,0.9-2.3,1.5c-0.6,0.7-1.2,1.5-1.5,2.4
			c-0.4,0.9-0.6,2-0.6,3.2c0,0.3,0,0.6,0,0.9c0,0.3,0.1,0.7,0.1,1c0.1,0.3,0.1,0.7,0.2,1c0.1,0.3,0.2,0.6,0.3,0.8L121.8,54.1z"/>
		<path class="st4" d="M156.8,76h-23.6l11.9-21.1h-11.9v-7.2h23.6l-11.9,21.1h11.9V76z"/>
		<path class="st4" d="M167.6,86.8h-7.3V47.6h1.7l2.9,3.4c0.7-0.6,1.4-1.2,2.1-1.7c0.8-0.5,1.6-1,2.4-1.4c0.8-0.4,1.7-0.7,2.6-0.9
			c0.9-0.2,1.8-0.3,2.7-0.3c2,0,3.9,0.4,5.6,1.1c1.8,0.7,3.3,1.7,4.6,3c1.3,1.3,2.3,2.9,3.1,4.7c0.8,1.8,1.1,3.9,1.1,6.1
			c0,2.3-0.4,4.4-1.1,6.3c-0.8,1.9-1.8,3.4-3.1,4.7c-1.3,1.3-2.8,2.3-4.6,3c-1.8,0.7-3.6,1-5.6,1c-0.6,0-1.3-0.1-1.9-0.2
			c-0.6-0.1-1.2-0.3-1.9-0.6c-0.6-0.2-1.2-0.5-1.8-0.8c-0.6-0.3-1.2-0.6-1.7-0.9V86.8z M182,61.5c0-1.2-0.2-2.3-0.6-3.2
			c-0.4-1-0.9-1.8-1.5-2.4c-0.7-0.7-1.4-1.2-2.3-1.5c-0.9-0.4-1.8-0.5-2.8-0.5c-1,0-1.9,0.2-2.8,0.5c-0.9,0.4-1.6,0.9-2.3,1.5
			c-0.7,0.7-1.2,1.5-1.5,2.4c-0.4,1-0.6,2-0.6,3.2c0,1.1,0.2,2.2,0.6,3.1c0.4,1,0.9,1.8,1.5,2.4c0.7,0.7,1.4,1.2,2.3,1.6
			c0.9,0.4,1.8,0.6,2.8,0.6c1,0,1.9-0.2,2.8-0.6s1.6-0.9,2.3-1.6c0.7-0.7,1.2-1.5,1.5-2.4C181.8,63.7,182,62.7,182,61.5z"/>
		<path class="st4" d="M201.2,41c0,0.7-0.1,1.3-0.4,1.9c-0.3,0.6-0.6,1.1-1,1.5c-0.4,0.4-1,0.8-1.5,1c-0.6,0.3-1.2,0.4-1.9,0.4
			c-0.7,0-1.3-0.1-1.9-0.4c-0.6-0.3-1.1-0.6-1.5-1c-0.4-0.4-0.8-0.9-1-1.5c-0.3-0.6-0.4-1.2-0.4-1.9c0-0.7,0.1-1.3,0.4-1.9
			c0.3-0.6,0.6-1.1,1-1.5c0.4-0.4,0.9-0.8,1.5-1c0.6-0.3,1.2-0.4,1.9-0.4c0.7,0,1.3,0.1,1.9,0.4c0.6,0.3,1.1,0.6,1.5,1
			c0.4,0.4,0.8,0.9,1,1.5C201.1,39.7,201.2,40.3,201.2,41z M200,76h-7.3V47.6h7.3V76z"/>
		<path class="st4" d="M227.1,76h-23.6l11.9-21.1h-11.9v-7.2h23.6l-11.9,21.1h11.9V76z"/>
		<path class="st4" d="M241.4,69c0.3,0.1,0.6,0.1,0.8,0.2c0.3,0,0.6,0,0.8,0c0.7,0,1.4-0.1,2-0.3c0.7-0.2,1.3-0.5,1.8-0.8
			c0.6-0.4,1.1-0.8,1.5-1.3c0.4-0.5,0.8-1.1,1.1-1.7l5.3,5.3c-0.7,1-1.4,1.8-2.3,2.6c-0.9,0.8-1.8,1.4-2.8,1.9
			c-1,0.5-2.1,0.9-3.2,1.2c-1.1,0.3-2.3,0.4-3.5,0.4c-2,0-3.9-0.4-5.6-1.1c-1.8-0.7-3.3-1.8-4.6-3.1s-2.3-2.9-3.1-4.7
			c-0.8-1.8-1.1-3.8-1.1-6c0-2.2,0.4-4.3,1.1-6.1s1.8-3.4,3.1-4.7c1.3-1.3,2.8-2.3,4.6-3c1.8-0.7,3.6-1.1,5.6-1.1
			c1.2,0,2.3,0.1,3.5,0.4c1.1,0.3,2.2,0.7,3.2,1.2s2,1.2,2.8,1.9c0.9,0.8,1.7,1.6,2.3,2.6L241.4,69z M245.1,54.1
			c-0.3-0.1-0.7-0.2-1-0.2c-0.3,0-0.7-0.1-1-0.1c-1,0-1.9,0.2-2.8,0.5c-0.9,0.4-1.6,0.9-2.3,1.5c-0.6,0.7-1.2,1.5-1.5,2.4
			c-0.4,0.9-0.6,2-0.6,3.2c0,0.3,0,0.6,0,0.9c0,0.3,0.1,0.7,0.1,1c0.1,0.3,0.1,0.7,0.2,1c0.1,0.3,0.2,0.6,0.3,0.8L245.1,54.1z"/>
		<path class="st4" d="M269.1,69c0.3,0.1,0.6,0.1,0.8,0.2c0.3,0,0.6,0,0.8,0c0.7,0,1.4-0.1,2-0.3c0.7-0.2,1.3-0.5,1.8-0.8
			c0.6-0.4,1.1-0.8,1.5-1.3c0.4-0.5,0.8-1.1,1.1-1.7l5.3,5.3c-0.7,1-1.4,1.8-2.3,2.6c-0.9,0.8-1.8,1.4-2.8,1.9
			c-1,0.5-2.1,0.9-3.2,1.2c-1.1,0.3-2.3,0.4-3.5,0.4c-2,0-3.9-0.4-5.6-1.1c-1.8-0.7-3.3-1.8-4.6-3.1s-2.3-2.9-3.1-4.7
			c-0.8-1.8-1.1-3.8-1.1-6c0-2.2,0.4-4.3,1.1-6.1c0.8-1.9,1.8-3.4,3.1-4.7c1.3-1.3,2.8-2.3,4.6-3c1.8-0.7,3.6-1.1,5.6-1.1
			c1.2,0,2.3,0.1,3.5,0.4c1.1,0.3,2.2,0.7,3.2,1.2c1,0.5,2,1.2,2.8,1.9c0.9,0.8,1.7,1.6,2.3,2.6L269.1,69z M272.8,54.1
			c-0.3-0.1-0.7-0.2-1-0.2c-0.3,0-0.7-0.1-1-0.1c-1,0-1.9,0.2-2.8,0.5c-0.9,0.4-1.6,0.9-2.3,1.5c-0.6,0.7-1.2,1.5-1.5,2.4
			c-0.4,0.9-0.6,2-0.6,3.2c0,0.3,0,0.6,0,0.9c0,0.3,0.1,0.7,0.1,1c0.1,0.3,0.1,0.7,0.2,1c0.1,0.3,0.2,0.6,0.3,0.8L272.8,54.1z"/>
	</g>
</g>
</svg>
