<?xml version="1.0" standalone="no"?>
<!DOCTYPE svg PUBLIC "-//W3C//DTD SVG 20010904//EN"
 "http://www.w3.org/TR/2001/REC-SVG-20010904/DTD/svg10.dtd">
<svg version="1.0" xmlns="http://www.w3.org/2000/svg"
 width="300.000000pt" height="300.000000pt" viewBox="0 0 300.000000 300.000000"
 preserveAspectRatio="xMidYMid meet">
<metadata>
Created by potrace 1.11, written by Peter Selinger 2001-2013
</metadata>
<g transform="translate(0.000000,300.000000) scale(0.100000,-0.100000)"
fill="#000000" stroke="none">
<path d="M1610 2724 c-14 -3 -61 -23 -105 -44 -342 -165 -532 -718 -365 -1064
134 -280 503 -291 636 -19 28 56 29 63 29 208 0 144 1 152 28 207 15 32 52 80
83 110 35 33 67 77 87 118 27 57 31 75 31 146 0 72 -4 90 -32 147 -37 74 -84
124 -153 162 -38 21 -65 27 -131 30 -46 2 -94 1 -108 -1z"/>
<path d="M1885 1504 c-11 -3 -40 -12 -65 -21 -196 -70 -278 -284 -184 -481 24
-52 100 -122 168 -157 103 -53 168 -148 185 -271 18 -126 92 -230 201 -282 74
-35 210 -38 281 -5 263 119 292 489 67 851 -63 102 -202 230 -319 295 -95 54
-261 89 -334 71z"/>
<path d="M1113 1389 c-57 -11 -116 -43 -187 -102 -95 -78 -191 -108 -289 -88
-86 18 -135 20 -192 7 -133 -32 -239 -140 -262 -272 -49 -267 203 -473 562
-459 55 2 114 6 130 9 17 4 44 9 60 12 90 19 226 75 309 128 288 184 370 493
177 675 -50 47 -98 75 -146 85 -55 11 -119 13 -162 5z"/>
</g>
</svg>
