<?xml version="1.0" standalone="no"?>
<!DOCTYPE svg PUBLIC "-//W3C//DTD SVG 20010904//EN"
 "http://www.w3.org/TR/2001/REC-SVG-20010904/DTD/svg10.dtd">
<svg version="1.0" xmlns="http://www.w3.org/2000/svg"
 width="470.000000pt" height="470.000000pt" viewBox="0 0 470.000000 470.000000"
 preserveAspectRatio="xMidYMid meet">
<metadata>
Created by potrace 1.11, written by Peter Selinger 2001-2013
</metadata>
<g transform="translate(0.000000,470.000000) scale(0.100000,-0.100000)"
fill="#000000" stroke="none">
<path d="M3675 4630 c-529 -111 -1034 -620 -1177 -1187 -19 -73 -23 -114 -22
-248 0 -146 2 -167 27 -241 79 -238 286 -393 524 -394 152 0 281 55 393 169
91 92 122 147 155 277 72 282 242 470 510 563 179 62 319 226 360 417 18 87
18 131 0 217 -38 179 -156 327 -318 396 -121 52 -295 64 -452 31z m16 -959
c52 -52 31 -118 -51 -159 -25 -12 -42 -32 -62 -72 -14 -30 -36 -62 -48 -72
-57 -46 -140 4 -140 84 0 58 38 135 89 181 82 74 161 88 212 38z"/>
<path d="M703 3040 c-225 -41 -402 -208 -448 -427 -19 -86 -18 -140 0 -228 61
-285 341 -561 730 -715 324 -129 737 -156 1055 -69 102 28 282 117 355 176
190 155 270 367 220 582 -23 95 -70 177 -150 257 -149 151 -351 200 -561 138
-119 -36 -288 -44 -401 -19 -102 22 -242 90 -323 158 -78 65 -156 110 -228
131 -69 20 -184 27 -249 16z m725 -477 c38 -22 50 -25 106 -18 58 6 65 4 94
-20 26 -22 32 -34 32 -67 0 -131 -234 -161 -355 -44 -38 35 -45 49 -45 80 0
49 15 75 53 91 37 16 55 12 115 -22z"/>
<path d="M3201 2385 c-103 -23 -185 -68 -261 -141 -111 -107 -170 -242 -170
-391 0 -171 48 -278 193 -432 56 -59 119 -137 140 -172 77 -131 118 -325 97
-461 -22 -137 -23 -239 -6 -308 27 -109 72 -188 150 -265 115 -114 235 -165
391 -165 262 0 482 190 580 500 196 626 -147 1496 -700 1773 -129 64 -295 89
-414 62z m244 -1024 c72 -41 125 -176 105 -267 -15 -66 -52 -104 -101 -104
-62 0 -82 25 -89 113 -6 64 -11 80 -38 113 -40 49 -44 109 -9 141 38 36 74 37
132 4z"/>
</g>
</svg>
